<svg id="Layer_1" data-name="Layer 1" xmlns="http://www.w3.org/2000/svg" viewBox="0 0 64 64"><defs><style>.cls-1{fill:#c02330;}.cls-2{fill:#070707;}</style></defs><path class="cls-1" d="M32.29,6.8a26.19,26.19,0,0,1,17.84,6.81,23.6,23.6,0,0,1,7.4,15c.1.82.11,1.66.2,2.48.05.45-.14.54-.53.52a10,10,0,0,0-1.64,0c-.62.06-.77-.22-.82-.78A23.07,23.07,0,0,0,52,21.51C47.78,14.08,41.25,10.4,32.83,10A22.16,22.16,0,0,0,9.4,29.83c-.23,1.73-.21,1.73-2,1.77-1.2,0-1.21,0-1.13-1.13.47-7.18,3.11-13.33,8.8-17.93C20,8.57,25.73,6.88,32.29,6.8Z"/><path class="cls-1" d="M31.9.68C40.54.85,48.14,3.5,54.34,9.55a29.64,29.64,0,0,1,8.34,16.1,42.22,42.22,0,0,1,.65,5.73c0,.53-.15.67-.66.63a19,19,0,0,0-2.26-.08c-.58,0-.66-.22-.7-.72a30.25,30.25,0,0,0-3.45-12.06c-5.1-9.28-13.08-14-23.59-14.41a26.39,26.39,0,0,0-18.24,6.13C9.12,15.22,6.16,20.94,4.86,27.58a25.83,25.83,0,0,0-.5,3.71c0,.47-.14.7-.68.68-.81,0-1.62,0-2.42,0-.44,0-.59-.11-.57-.57A32.63,32.63,0,0,1,5.64,14.57C11.3,5.92,19.54,1.64,29.72.81,30.47.75,31.22.72,31.9.68Z"/><path class="cls-1" d="M49.63,32a13.08,13.08,0,0,0-1.4,0c-.61.06-.78-.14-.8-.76a15.33,15.33,0,0,0-2.92-9.07c-3.62-4.79-8.59-6.64-14.43-5.95-7.92.94-13.24,6.93-13.48,14.9,0,.58-.07.88-.79.82a14.84,14.84,0,0,0-2.09.17c-1.17.05-1.57-.36-1.53-1.53A19.41,19.41,0,0,1,18,17.68c7-7.41,21.16-8.25,28.89.9A21,21,0,0,1,51.8,31.39c0,.49-.12.66-.6.62S50.16,32,49.63,32Z"/><path class="cls-1" d="M18.62,32.08A13.4,13.4,0,0,1,29.55,18.84c.84-.16,1.4.12,1.54.78s-.27,1.15-1.1,1.31a11.25,11.25,0,0,0-8.69,14.6c.06.18.12.35.17.52a1,1,0,0,1-.7,1.36,1.05,1.05,0,0,1-1.32-.68A13.52,13.52,0,0,1,18.62,32.08Z"/><path class="cls-1" d="M45.47,32.13a13.54,13.54,0,0,1-.78,4.37c-.3.83-.82,1.13-1.46.9s-.82-.78-.54-1.62A11.25,11.25,0,0,0,34.18,21c-.67-.14-1.22-.35-1.21-1.16a1,1,0,0,1,1.38-1A13.44,13.44,0,0,1,45.47,32.13Z"/><path class="cls-1" d="M31.86,22.67a9.44,9.44,0,0,1,6.61,2.57c.64.6.71,1.31.16,1.75a1.13,1.13,0,0,1-1.6-.17,7.18,7.18,0,0,0-9.42-.49,9.45,9.45,0,0,0-.75.67,1.13,1.13,0,0,1-1.66.11c-.44-.47-.37-1.07.19-1.65A9.2,9.2,0,0,1,31.86,22.67Z"/><path class="cls-1" d="M33.35,32.07A1.29,1.29,0,0,1,32,33.35,1.34,1.34,0,0,1,30.7,32a1.32,1.32,0,0,1,1.35-1.32A1.3,1.3,0,0,1,33.35,32.07Z"/><path class="cls-2" d="M63.22,35.48A30.38,30.38,0,0,1,34.86,63.19C15.55,64.76,2.22,51.32.67,35.43H1.5c4.58,0,9.17,0,13.75,0a1.09,1.09,0,0,1,1.24.83,17.92,17.92,0,0,0,7.76,9.46,15.36,15.36,0,0,0,18.92-2.66,19.88,19.88,0,0,0,4.38-7c.15-.37.28-.6.76-.6,4.84,0,9.69,0,14.53,0A2.47,2.47,0,0,1,63.22,35.48Z"/><path class="cls-1" d="M32.17,45.47a13.53,13.53,0,0,1-10.32-4.69c-.56-.64-.58-1.29-.1-1.73s1.13-.36,1.74.34a10.68,10.68,0,0,0,5.59,3.52A11.09,11.09,0,0,0,40.6,39.38a1.26,1.26,0,0,1,1.27-.56c.83.19,1.05,1.11.42,1.85a13.1,13.1,0,0,1-8.48,4.65C33.22,45.4,32.62,45.43,32.17,45.47Z"/><path class="cls-1" d="M22.68,32a8.23,8.23,0,0,1,.3-2.31,1.08,1.08,0,0,1,1.29-.93A1,1,0,0,1,25,30.19a7.2,7.2,0,0,0,1.44,6.45A7,7,0,0,0,30.16,39c.83.24,1.21.74,1,1.36s-.78.92-1.65.68A9.34,9.34,0,0,1,22.68,32Z"/><path class="cls-1" d="M41.41,32a9.43,9.43,0,0,1-6.64,9c-.84.25-1.42.05-1.63-.57s.11-1.18,1-1.46a7.22,7.22,0,0,0,4.94-8.59A3.74,3.74,0,0,1,39,29.9a1,1,0,0,1,.7-1.29,1,1,0,0,1,1.33.73A9.37,9.37,0,0,1,41.41,32Z"/><path class="cls-1" d="M32,37.31a5.29,5.29,0,0,1-2.7-.75,1.06,1.06,0,0,1-.48-1.46,1,1,0,0,1,1.47-.41,3.31,3.31,0,0,0,3.47,0,1,1,0,0,1,1.42.39,1,1,0,0,1-.35,1.43A5.07,5.07,0,0,1,32,37.31Z"/><path class="cls-1" d="M37.31,31.7c0,1.06-.34,1.5-1,1.54s-1.08-.47-1.12-1.29a3.08,3.08,0,0,0-1.48-2.59c-.73-.48-.94-1-.59-1.6s1-.68,1.76-.19A5.13,5.13,0,0,1,37.31,31.7Z"/><path class="cls-1" d="M26.77,31.48a5.13,5.13,0,0,1,2.5-3.95c.71-.45,1.32-.35,1.69.24s.14,1.11-.54,1.55a3.15,3.15,0,0,0-1.53,2.56c-.05.92-.46,1.37-1.17,1.32S26.7,32.63,26.77,31.48Z"/></svg>
